<?xml version="1.0" encoding="UTF-8"?>
<svg width="41px" height="41px" viewBox="0 0 41 41" version="1.1" xmlns="http://www.w3.org/2000/svg" xmlns:xlink="http://www.w3.org/1999/xlink">
    <!-- Generator: Sketch 57.1 (83088) - https://sketch.com -->
    <title>email logo</title>
    <desc>Created with Sketch.</desc>
    <g id="Page-1" stroke="none" stroke-width="1" fill="none" fill-rule="evenodd">
        <g id="iPhone-8" transform="translate(-283.000000, -1085.000000)">
            <g id="email-logo" transform="translate(283.000000, 1085.000000)">
                <rect id="Rectangle" stroke="#000000" stroke-width="2" fill="#D8D8D8" x="1" y="1" width="39" height="39" rx="4"></rect>
                <path d="M22.5949716,4.4409482 C21.4296775,3.30407599 19.5703225,3.30407599 18.4050284,4.4409482 L2.45700035,20 L38.5429997,20 L22.5949716,4.4409482 Z" id="Triangle" stroke="#000000" stroke-width="2" fill="#D8D8D8" transform="translate(20.500000, 11.000000) scale(1, -1) translate(-20.500000, -11.000000) "></path>
                <path d="M20.208,36.52 C19.1679948,36.4933332 18.2200043,36.308 17.364,35.964 C16.5079957,35.6199983 15.7680031,35.1413364 15.144,34.528 C14.5199969,33.9146636 14.0400017,33.1840042 13.704,32.336 C13.3679983,31.4879958 13.2,30.5466718 13.2,29.512 C13.2,28.2266602 13.4093312,27.0520053 13.828,25.988 C14.2466688,24.9239947 14.8426628,24.0053372 15.616,23.232 C16.3893372,22.4586628 17.309328,21.8613354 18.376,21.44 C19.442672,21.0186646 20.6239935,20.808 21.92,20.808 C22.9706719,20.808 23.9319956,20.9733317 24.804,21.304 C25.6760044,21.6346683 26.4253302,22.1053303 27.052,22.716 C27.6786698,23.3266697 28.1639983,24.0533291 28.508,24.896 C28.8520017,25.7386709 29.024,26.6746615 29.024,27.704 L27.488,27.816 C27.488,26.6799943 27.2533357,25.6920042 26.784,24.852 C26.3146643,24.0119958 25.6613375,23.3640023 24.824,22.908 C23.9866625,22.4519977 23.0186722,22.224 21.92,22.224 C20.853328,22.224 19.8813377,22.3986649 19.004,22.748 C18.1266623,23.0973351 17.3680032,23.5946634 16.728,24.24 C16.0879968,24.8853366 15.5946684,25.6533289 15.248,26.544 C14.9013316,27.4346711 14.728,28.4239946 14.728,29.512 C14.728,30.6106722 14.9599977,31.5799958 15.424,32.42 C15.8880023,33.2600042 16.5319959,33.917331 17.356,34.392 C18.1800041,34.866669 19.1306613,35.104 20.208,35.104 C20.949337,35.104 21.6413301,35.0173342 22.284,34.844 C22.9266699,34.6706658 23.5039974,34.4240016 24.016,34.104 L24.864,35.256 C24.2346635,35.656002 23.5293372,35.9719988 22.748,36.204 C21.9666628,36.4360012 21.1200046,36.5413334 20.208,36.52 Z M19.808,32.896 C19.3066642,32.896 18.8333356,32.7560014 18.388,32.476 C17.9426644,32.1959986 17.5813347,31.785336 17.304,31.244 C17.0266653,30.702664 16.888,30.0453372 16.888,29.272 C16.888,28.6959971 16.9773324,28.1253362 17.156,27.56 C17.3346676,26.9946638 17.5986649,26.4813356 17.948,26.02 C18.2973351,25.5586644 18.7266641,25.1920014 19.236,24.92 C19.7453359,24.6479986 20.3226634,24.512 20.968,24.512 C21.6293366,24.512 22.2119975,24.6586652 22.716,24.952 C23.2200025,25.2453348 23.6133319,25.658664 23.896,26.192 C24.1786681,26.725336 24.32,27.354663 24.32,28.08 C24.32,28.4853354 24.2706672,28.8866647 24.172,29.284 C24.0733328,29.6813353 23.9386675,30.079998 23.768,30.48 L23.016,30.744 L22.72,30.664 C22.453332,31.1546691 22.1693348,31.566665 21.868,31.9 C21.5666652,32.233335 21.2440017,32.4826658 20.9,32.648 C20.5559983,32.8133342 20.1920019,32.896 19.808,32.896 Z M20.28,31.52 C20.7066688,31.52 21.0973316,31.4213343 21.452,31.224 C21.8066684,31.0266657 22.1146654,30.761335 22.376,30.428 C22.6373346,30.094665 22.8373326,29.7213354 22.976,29.308 C23.1146674,28.8946646 23.184,28.4746688 23.184,28.048 C23.184,27.3493298 22.9946686,26.8146685 22.616,26.444 C22.2373314,26.0733315 21.7493363,25.888 21.152,25.888 C20.5493303,25.888 20.0426687,26.0613316 19.632,26.408 C19.2213313,26.7546684 18.912001,27.1919974 18.704,27.72 C18.495999,28.2480026 18.392,28.7893306 18.392,29.344 C18.392,30.0746703 18.5746648,30.6199982 18.94,30.98 C19.3053352,31.3400018 19.7519974,31.52 20.28,31.52 Z M25.008,32.896 C24.4373305,32.896 23.9706685,32.7640013 23.608,32.5 C23.2453315,32.2359987 23.0053339,31.8613358 22.888,31.376 C22.7706661,30.8906642 22.7946658,30.3200033 22.96,29.664 L24.272,27.912 L23.432,27.32 L24.072,24.744 L25.576,24.744 L24.352,29.608 C24.218666,30.1520027 24.1999995,30.6066648 24.296,30.972 C24.3920005,31.3373352 24.6746643,31.52 25.144,31.52 C25.4160014,31.52 25.6879986,31.4506674 25.96,31.312 C26.2320014,31.1733326 26.4839988,30.9560015 26.716,30.66 C26.9480012,30.3639985 27.134666,29.9800024 27.276,29.508 C27.417334,29.0359976 27.488,28.4720033 27.488,27.816 L29.024,27.704 C29.024,28.5520042 28.9106678,29.2986634 28.684,29.944 C28.4573322,30.5893366 28.1533352,31.1319978 27.772,31.572 C27.3906648,32.0120022 26.9613357,32.3426656 26.484,32.564 C26.0066643,32.7853344 25.5146692,32.896 25.008,32.896 Z" id="@" fill="#000000" fill-rule="nonzero"></path>
            </g>
        </g>
    </g>
</svg>