<?xml version="1.0" encoding="UTF-8"?>
<svg width="41px" height="41px" viewBox="0 0 41 41" version="1.1" xmlns="http://www.w3.org/2000/svg" xmlns:xlink="http://www.w3.org/1999/xlink">
    <!-- Generator: Sketch 57.1 (83088) - https://sketch.com -->
    <title>Instagram logo</title>
    <desc>Created with Sketch.</desc>
    <g id="Page-1" stroke="none" stroke-width="1" fill="none" fill-rule="evenodd">
        <g id="iPhone-8" transform="translate(-331.000000, -1086.000000)">
            <g id="Instagram-logo" transform="translate(331.000000, 1086.000000)">
                <rect id="Rectangle" fill="#D8D8D8" x="1" y="1" width="39" height="39" rx="6"></rect>
                <path d="M35,1 C38.3137085,1 41,3.6862915 41,7 L41,22 L29,22 C29,17.0294373 24.9705627,13 20,13 C15.0294373,13 11,17.0294373 11,22 L0,22 L0,7 C-4.05812251e-16,3.6862915 2.6862915,1 6,1 L35,1 Z M29.5,8 C28.1192881,8 27,9.11928813 27,10.5 C27,11.8807119 28.1192881,13 29.5,13 C30.8807119,13 32,11.8807119 32,10.5 C32,9.11928813 30.8807119,8 29.5,8 Z" id="Combined-Shape" fill="#000000"></path>
                <rect id="Rectangle" stroke="#000000" stroke-width="3" x="1.5" y="1.5" width="38" height="38" rx="6"></rect>
                <circle id="Oval-Copy-11" stroke="#000000" stroke-width="3" cx="20" cy="20" r="7.5"></circle>
            </g>
        </g>
    </g>
</svg>